<?xml version="1.0" encoding="utf-8"?>
<!-- Generator: Adobe Illustrator 24.2.0, SVG Export Plug-In . SVG Version: 6.00 Build 0)  -->
<svg version="1.1" id="Livello_1" xmlns="http://www.w3.org/2000/svg" xmlnsXlink="http://www.w3.org/1999/xlink" x="0px" y="0px"
	 viewBox="0 0 100 100" style="enable-background:new 0 0 100 100;" xmlSpace="preserve">
<style type="text/css">
	.st0{fill-rule:evenodd;clip-rule:evenodd;fill:#231E1B;}
	.st1{fill:#231E1B;}
</style>
<g>
	<path class="st0" d="M50,0C22.39,0,0,22.38,0,50c0,22.09,14.33,40.83,34.19,47.44c2.5,0.46,3.42-1.09,3.42-2.41
		c0-1.19-0.05-5.13-0.07-9.31c-13.91,3.02-16.85-5.9-16.85-5.9c-2.27-5.78-5.55-7.32-5.55-7.32c-4.54-3.1,0.34-3.04,0.34-3.04
		c5.02,0.35,7.66,5.15,7.66,5.15c4.46,7.64,11.7,5.43,14.55,4.16c0.45-3.23,1.74-5.44,3.17-6.69C29.77,70.83,18.1,66.55,18.1,47.39
		c0-5.46,1.95-9.92,5.15-13.42c-0.52-1.26-2.23-6.34,0.48-13.23c0,0,4.2-1.34,13.75,5.13c3.99-1.11,8.27-1.66,12.52-1.68
		c4.25,0.02,8.53,0.57,12.53,1.68c9.54-6.47,13.74-5.13,13.74-5.13c2.72,6.89,1.01,11.97,0.49,13.23c3.21,3.5,5.15,7.96,5.15,13.42
		c0,19.2-11.7,23.43-22.83,24.67c1.79,1.55,3.39,4.59,3.39,9.26c0,6.69-0.06,12.07-0.06,13.72c0,1.33,0.9,2.89,3.43,2.4
		C85.69,90.82,100,72.08,100,50C100,22.38,77.61,0,50,0z"/>
	<path class="st1" d="M18.94,71.79c-0.11,0.25-0.5,0.32-0.86,0.15c-0.36-0.16-0.57-0.5-0.45-0.75c0.11-0.26,0.5-0.33,0.86-0.16
		C18.86,71.2,19.06,71.54,18.94,71.79L18.94,71.79z M18.32,71.33"/>
	<path class="st1" d="M20.96,74.05c-0.24,0.22-0.71,0.12-1.02-0.23c-0.33-0.35-0.39-0.82-0.15-1.04c0.25-0.22,0.7-0.12,1.03,0.23
		C21.15,73.36,21.21,73.82,20.96,74.05L20.96,74.05z M20.49,73.54"/>
	<path class="st1" d="M22.93,76.93c-0.31,0.21-0.81,0.01-1.12-0.43c-0.31-0.44-0.31-0.98,0.01-1.19c0.31-0.21,0.8-0.02,1.12,0.42
		C23.25,76.18,23.25,76.71,22.93,76.93L22.93,76.93z M22.93,76.93"/>
	<path class="st1" d="M25.64,79.71c-0.27,0.3-0.86,0.22-1.28-0.19c-0.44-0.4-0.56-0.98-0.28-1.28c0.28-0.3,0.87-0.22,1.3,0.19
		C25.8,78.83,25.93,79.41,25.64,79.71L25.64,79.71z M25.64,79.71"/>
	<path class="st1" d="M29.36,81.33c-0.12,0.39-0.68,0.57-1.25,0.4c-0.57-0.17-0.94-0.63-0.82-1.03c0.12-0.39,0.68-0.58,1.25-0.4
		C29.11,80.47,29.48,80.93,29.36,81.33L29.36,81.33z M29.36,81.33"/>
	<path class="st1" d="M33.45,81.62c0.01,0.41-0.47,0.75-1.06,0.76c-0.6,0.01-1.08-0.32-1.09-0.73c0-0.42,0.47-0.75,1.07-0.76
		C32.97,80.88,33.45,81.22,33.45,81.62L33.45,81.62z M33.45,81.62"/>
	<path class="st1" d="M37.26,80.98c0.07,0.4-0.34,0.82-0.93,0.93c-0.58,0.11-1.12-0.14-1.19-0.54c-0.07-0.41,0.35-0.83,0.93-0.93
		C36.66,80.33,37.19,80.57,37.26,80.98L37.26,80.98z M37.26,80.98"/>
</g>
</svg>
